<svg width="17" height="16" viewBox="0 0 17 16" xmlns="http://www.w3.org/2000/svg">
<path fill-rule="evenodd" clip-rule="evenodd" d="M12.1049 0.858643L12.5999 1.35362L15.1391 3.89279L15.6341 4.38777L15.1391 4.88274L5.93457 14.0873L5.7847 14.2371L5.57687 14.2787L2.4029 14.9135L1.37329 15.1194L1.57921 14.0898L2.21401 10.9158L2.25557 10.708L2.40544 10.5581L11.61 1.35362L12.1049 0.858643ZM3.54525 11.3982L3.15795 13.3348L5.09448 12.9474L5.59974 12.4422L4.05051 10.893L3.54525 11.3982ZM5.04046 9.90301L6.58969 11.4522L12.069 5.97295L10.5197 4.42372L5.04046 9.90301ZM13.6542 4.38777L13.0589 4.983L11.5097 3.43377L12.1049 2.83854L13.6542 4.38777Z" />
</svg>
