<svg width="16" height="16" viewBox="0 0 16 16" xmlns="http://www.w3.org/2000/svg">
<path fill-rule="evenodd" clip-rule="evenodd" d="M4.60292 12.8743L3.67335 4L2.5 4.11201L3.53576 14H12.4642L13.5 4.11201L12.3267 4L11.3971 12.8743H4.60292Z" />
<path fill-rule="evenodd" clip-rule="evenodd" d="M6.01344 2.2C5.90337 2.2 5.79782 2.24372 5.71999 2.32155C5.68145 2.36009 5.65088 2.40584 5.63003 2.45619C5.60917 2.50654 5.59844 2.5605 5.59844 2.615V3.6H4.39844V2.615C4.39844 2.40291 4.44021 2.19291 4.52137 1.99697C4.60253 1.80103 4.72149 1.62299 4.87146 1.47302C5.17433 1.17015 5.58511 1 6.01344 1H9.98344C10.1955 1 10.4055 1.04177 10.6015 1.12293C10.7974 1.2041 10.9754 1.32306 11.1254 1.47302C11.2754 1.62299 11.3943 1.80102 11.4755 1.99697C11.5567 2.19291 11.5984 2.40292 11.5984 2.615V3.6H10.3984V2.615C10.3984 2.5605 10.3877 2.50654 10.3668 2.45619C10.346 2.40584 10.3154 2.36009 10.2769 2.32155C10.2383 2.28301 10.1926 2.25245 10.1423 2.23159C10.0919 2.21073 10.0379 2.2 9.98344 2.2H6.01344Z" />
<path fill-rule="evenodd" clip-rule="evenodd" d="M14 4.60039H2V3.40039H14V4.60039Z" />
</svg>
